<svg width="97" height="94" viewBox="0 0 97 94" fill="none" xmlns="http://www.w3.org/2000/svg">
<path d="M85.0125 33.8135V22.8937C85.0125 18.1265 83.1187 13.5545 79.7478 10.1835C76.3768 6.81254 71.8048 4.91876 67.0375 4.91876H22.1C17.3328 4.91876 12.761 6.81254 9.39007 10.1835C6.01911 13.5545 4.12506 18.1265 4.12506 22.8937V67.8312C4.12506 72.5985 6.01911 77.1705 9.39007 80.5415C12.761 83.9124 17.3328 85.8062 22.1 85.8062H46.636" fill="url(#paint0_linear_104_5)" fill-opacity="0.5"/>
<path d="M85.0125 33.8135V22.8937C85.0125 18.1265 83.1187 13.5545 79.7478 10.1835C76.3768 6.81254 71.8048 4.91876 67.0375 4.91876H22.1C17.3328 4.91876 12.761 6.81254 9.39007 10.1835C6.01911 13.5545 4.12506 18.1265 4.12506 22.8937V67.8312C4.12506 72.5985 6.01911 77.1705 9.39007 80.5415C12.761 83.9124 17.3328 85.8062 22.1 85.8062H46.636" stroke="#121212" stroke-width="8" stroke-linecap="round" stroke-linejoin="round"/>
<path d="M55.3552 37.3637L7.81134 11.974" stroke="#121212" stroke-width="8" stroke-linecap="round" stroke-linejoin="round"/>
<path d="M11.2255 82.1212L39.626 28.9602" stroke="#121212" stroke-width="8" stroke-linecap="round" stroke-linejoin="round"/>
<path d="M73.7781 45.3625C71.1209 45.3566 68.4887 45.8755 66.0326 46.8896C63.5764 47.9038 61.3451 49.3931 59.4661 51.272C57.5871 53.151 56.0979 55.3827 55.0837 57.8388C54.0696 60.2949 53.5503 62.9271 53.5563 65.5843C53.5563 79.0656 68.7451 90.2999 73.7781 90.2999C78.8111 90.2999 94 79.2903 94 65.5843C94 60.2212 91.8696 55.0775 88.0772 51.2852C84.2849 47.4929 79.1413 45.3625 73.7781 45.3625Z" fill="url(#paint1_linear_104_5)" fill-opacity="0.5" stroke="#121212" stroke-width="6" stroke-linecap="round" stroke-linejoin="round"/>
<path d="M73.7782 67.8312C73.1836 67.8288 72.5957 67.7083 72.048 67.4769C71.5004 67.2455 71.004 66.9078 70.5878 66.4832C69.7576 65.6462 69.2894 64.5164 69.2844 63.3375C69.281 62.7461 69.3946 62.1598 69.6182 61.6123C69.8419 61.0648 70.1713 60.5667 70.5878 60.1468C71.0056 59.7256 71.5026 59.3914 72.0502 59.1633C72.5978 58.9351 73.185 58.8177 73.7782 58.8177C74.3714 58.8177 74.9588 58.9351 75.5064 59.1633C76.054 59.3914 76.5511 59.7256 76.9688 60.1468C77.3853 60.5667 77.7148 61.0648 77.9384 61.6123C78.162 62.1598 78.2753 62.7461 78.2719 63.3375C78.267 64.5164 77.799 65.6462 76.9688 66.4832C76.5527 66.9078 76.0563 67.2455 75.5086 67.4769C74.9609 67.7083 74.3727 67.8288 73.7782 67.8312Z" fill="#121212"/>
<defs>
<linearGradient id="paint0_linear_104_5" x1="44.5688" y1="4.91876" x2="44.5688" y2="85.8062" gradientUnits="userSpaceOnUse">
<stop stop-color="#6A758A"/>
<stop offset="1" stop-color="white" stop-opacity="0"/>
</linearGradient>
<linearGradient id="paint1_linear_104_5" x1="73.7781" y1="45.3624" x2="73.7781" y2="90.2999" gradientUnits="userSpaceOnUse">
<stop stop-color="#6A758A"/>
<stop offset="1" stop-color="white" stop-opacity="0"/>
</linearGradient>
</defs>
</svg>
