<svg width="45" height="45" viewBox="0 0 45 45" fill="none" xmlns="http://www.w3.org/2000/svg">
<path d="M17.5624 9.75519C9.15172 4.02802 8.27707 2.06822 14.8002 0.652792C16.2323 0.341966 20.9926 0.055321 25.3796 0.0147785C32.8445 -0.0527924 33.465 0.0510558 35.0613 1.63933C37.1943 3.76318 42.5964 16.1964 41.955 17.7328C40.2658 21.775 29.3555 17.7847 17.5624 9.75519Z" fill="black"/>
<path d="M2.74921 27.9607C-0.915888 26.6697 -0.916662 13.817 2.74844 8.65531C4.87066 5.66584 9.04928 6.78396 17.1835 12.5161C24.4339 17.6259 25.9527 21.0229 21.857 22.9654C17.9378 24.8247 4.10852 28.4401 2.74921 27.9607Z" fill="black"/>
<path d="M36.7738 41.6114C35.1488 40.6163 34.3812 27.0623 35.7746 23.9477C36.6065 22.087 39.8944 22.4291 42.6083 24.6589C48.3027 29.3384 42.8074 45.3064 36.7738 41.6114Z" fill="black"/>
<path d="M4.35482 36.8224C2.482 34.0299 11.3071 28.3469 20.6503 26.3283C29.8494 24.3403 32.5084 26.4627 32.5053 35.7896C32.5038 42.6264 30.7657 45.1379 26.1363 44.9942C19.7216 44.795 6.33376 39.7728 4.35482 36.8224Z" fill="black"/>
</svg>
