<svg width="45" height="15" viewBox="0 0 45 15" fill="none" xmlns="http://www.w3.org/2000/svg">
<g clip-path="url(#clip0_10_48)">
<path d="M9.63665 7.49674C9.63665 8.54354 8.76909 9.38883 7.69466 9.38883C6.6202 9.38883 5.75263 8.54354 5.75263 7.49674C5.75263 6.44993 6.6202 5.60468 7.69466 5.60468C8.76909 5.60468 9.63665 6.44993 9.63665 7.49674ZM44.9933 7.49674L33.4013 14.6554H16.9042V9.0182H15.2358C14.5151 12.4317 11.4119 15 7.69466 15C3.44357 15 0 11.645 0 7.49674C0 3.3485 3.44357 0 7.69466 0C11.4119 0 14.5151 2.56827 15.2358 5.98179H16.9042V0.338101H33.408L45 7.49674H44.9933ZM13.8944 7.49674C13.8944 4.16775 11.1182 1.46294 7.70131 1.46294C4.28444 1.46294 1.50156 4.17425 1.50156 7.49674C1.50156 10.8192 4.27777 13.5306 7.69466 13.5306C11.1115 13.5306 13.8877 10.8258 13.8877 7.49674H13.8944ZM31.9732 1.80104H18.4057V13.199H31.9732V1.80104ZM39.9948 8.85567V6.14435L33.4747 2.11964V12.8804L39.9948 8.85567Z" fill="black"/>
</g>
<defs>
<clipPath id="clip0_10_48">
<rect width="45" height="15" fill="white"/>
</clipPath>
</defs>
</svg>
