<svg width="24" height="23" viewBox="0 0 24 23" fill="none" xmlns="http://www.w3.org/2000/svg">
<g clip-path="url(#clip0_10_38)">
<path d="M20.9432 4.99579C19.7116 3.25263 17.9432 2.07158 15.379 1.29474C12.6695 0.467369 10.2884 1.03579 8.29264 2.98105C7.44632 3.80842 6.68211 4.65474 6.01263 5.50105C4.25052 7.73052 3.94737 10.2253 5.10947 12.9032C5.74105 14.3684 6.42316 15.7516 7.75579 16.6168C9.68211 17.8674 11.6905 18.3853 13.5726 18.1137C15.5747 17.8232 17.3432 16.6358 18.6821 14.6779C19.7305 13.1368 19.939 11.5074 19.2947 9.83368C18.379 7.44631 16.56 5.89895 13.9074 5.24211C13.3895 5.11579 12.7263 5.15369 12.1642 5.34948C10.5095 5.92421 9.29053 7.11158 8.82316 8.60842C8.34948 10.1305 8.6779 11.8295 9.72632 13.2695C10.3579 14.141 11.1979 14.6084 12.2905 14.6905C13.7305 14.8042 15.1074 13.9137 15.5621 12.5684C15.979 11.3432 15.3347 9.58105 14.2421 8.94315C13.9453 8.77263 13.4084 8.83579 13.1305 9.00631C12.9726 9.10736 12.8716 9.24631 12.8463 9.41684C12.8147 9.63789 12.9032 9.88421 13.099 10.1116C13.1495 10.1684 13.2 10.2253 13.2505 10.2821C13.4337 10.4905 13.6295 10.6989 13.699 10.9263C13.8442 11.4063 13.8695 11.8232 13.7558 12.0758C13.56 12.5305 13.1179 12.8274 12.5684 12.8779C12 12.9284 11.4568 12.6947 11.16 12.2589C10.2 10.8568 10.219 9.59368 11.2042 8.39368C11.9053 7.54736 13.0105 6.65684 14.3242 7.21263C15.5811 7.74315 16.44 8.38736 17.0274 9.24631C17.8547 10.4589 18.019 11.7284 17.5074 13.0232C16.5916 15.3663 13.8253 16.8695 11.4632 16.301C9.1579 15.7453 7.50948 14.3368 6.82106 12.3221C6.15789 10.3832 6.49895 8.17263 7.68001 6.70105C8.29264 5.93684 9.01264 5.13474 9.87158 4.24421C11.1347 2.94316 12.7453 2.54527 14.659 3.06316C16.9958 3.70105 18.8147 5.02737 20.0716 7.01052C22.3579 10.6232 22.2253 13.8632 19.6674 16.9263C17.9242 19.0105 15.6695 20.1916 13.1432 20.3368C10.8 20.4758 8.34316 19.7053 6.22105 18.1642C4.58526 16.9768 3.69474 15.2274 2.77895 13.2316C2.0021 11.5389 1.86316 9.75789 2.3621 7.78736C2.81052 6.01263 3.6821 4.3579 5.10316 2.56421C5.4 2.19158 5.53263 1.78737 5.47579 1.42105C5.43158 1.15579 5.29263 0.934739 5.06526 0.78316C4.44631 0.366316 4.01052 0.808423 3.69474 1.13053C3.66316 1.16211 3.63789 1.18737 3.61263 1.21895C1.93895 2.89895 0.827367 5.05263 0.126316 8.01473C0.00631648 8.50736 -0.0252625 9.07579 0.018948 9.80842C0.202106 12.8842 1.42737 15.72 3.56842 18.0126C6.17053 20.7916 9.13895 22.1937 12.4295 22.1937C13.2884 22.1937 14.1663 22.0989 15.0695 21.9095C19.339 21 22.1053 18.3095 23.2926 13.901C24.2716 10.2568 22.5537 7.22526 20.9432 5.00211V4.99579Z" fill="black"/>
</g>
<defs>
<clipPath id="clip0_10_38">
<rect width="24" height="22.7368" fill="white"/>
</clipPath>
</defs>
</svg>
