<svg width="24" height="24" viewBox="0 0 24 24" fill="none" xmlns="http://www.w3.org/2000/svg">
<g clip-path="url(#clip0_10_14)">
<mask id="mask0_10_14" style="mask-type:luminance" maskUnits="userSpaceOnUse" x="0" y="0" width="24" height="24">
<path d="M24 0H0V24H24V0Z" fill="white"/>
</mask>
<g mask="url(#mask0_10_14)">
<path d="M11.6174 19.1065C7.9676 19.1065 5 16.1426 5 12.4973C5 12.2238 5.22407 12 5.49792 12C5.77178 12 5.99585 12.2238 5.99585 12.4973C5.99585 15.5955 8.52033 18.1119 11.6174 18.1119C14.7145 18.1119 17.239 15.5905 17.239 12.4973C17.239 12.2238 17.4631 12 17.7369 12C18.0108 12 18.2349 12.2238 18.2349 12.4973C18.2349 16.1426 15.2672 19.1065 11.6174 19.1065Z" fill="#010101"/>
<path d="M9.59501 11.0998C10.1477 11.0998 10.5959 10.0667 10.5959 8.79233C10.5959 7.51793 10.1477 6.4848 9.59501 6.4848C9.04227 6.4848 8.59421 7.51793 8.59421 8.79233C8.59421 10.0667 9.04227 11.0998 9.59501 11.0998Z" fill="#010101"/>
<path d="M14.5096 11.0998C15.0623 11.0998 15.5104 10.0667 15.5104 8.79233C15.5104 7.51793 15.0623 6.4848 14.5096 6.4848C13.9568 6.4848 13.5088 7.51793 13.5088 8.79233C13.5088 10.0667 13.9568 11.0998 14.5096 11.0998Z" fill="#010101"/>
<path d="M15.2316 0.910017L14.176 3.47114C14.0913 3.68498 13.8971 3.77948 13.688 3.75958C13.4888 3.74466 13.3196 3.62531 13.2548 3.39655L12.7569 1.74549L12 3.29709C11.9004 3.50098 11.7212 3.60542 11.512 3.58552C11.3129 3.5706 11.1336 3.45622 11.0789 3.22249L10.4465 0.527091C10.3818 0.238653 10.5859 0.0347577 10.795 0.00491938C10.9942 -0.024919 11.2532 0.109354 11.3079 0.372926L11.6814 2.08366L12.4233 0.591741C12.5228 0.387845 12.6822 0.268492 12.9013 0.283411C13.1054 0.29833 13.2498 0.437576 13.3146 0.661364L13.7776 2.27264L14.4398 0.626553C14.5444 0.358007 14.8282 0.283411 15.0174 0.358007C15.1918 0.42763 15.3511 0.636499 15.2316 0.91499V0.910017Z" fill="#010101"/>
<path d="M16.0282 2.54117C16.5959 1.70073 17.7013 1.50677 18.6274 2.12841C19.5535 2.75004 19.7925 3.84411 19.2299 4.68953C18.6623 5.52998 17.5569 5.72393 16.6307 5.1023C15.7045 4.48067 15.4655 3.38659 16.0282 2.54117ZM18.483 4.18725C18.7967 3.71979 18.6573 3.13297 18.1693 2.80475C17.6813 2.47652 17.0838 2.57599 16.7701 3.03848C16.4564 3.50595 16.5959 4.09277 17.0838 4.42099C17.5718 4.74921 18.1693 4.64975 18.483 4.18725Z" fill="#010101"/>
<path d="M20.0714 9.07579C19.8573 8.97633 19.7228 8.69286 19.8672 8.38453L20.3303 7.42966L19.8722 6.66383L19.2896 7.01193C19.0407 7.16113 18.7967 7.07159 18.6772 6.87273C18.5627 6.68373 18.5925 6.42015 18.8415 6.27095L21.0722 4.93817C21.3261 4.78898 21.5701 4.88844 21.6847 5.07742L22.3569 6.20133C22.7253 6.81799 22.6805 7.57886 22.0332 7.96679C21.6747 8.18059 21.3013 8.19053 20.9776 8.04633L20.634 8.79726C20.4946 9.10066 20.2556 9.15533 20.0763 9.07579H20.0714ZM20.5095 6.28587L20.9527 7.02686C21.0921 7.25559 21.3361 7.35013 21.5701 7.20586C21.8041 7.06666 21.839 6.80806 21.7045 6.57431L21.2614 5.83333L20.5095 6.2809V6.28587Z" fill="#010101"/>
<path d="M21.2764 12.4326C21.0573 12.6862 20.8034 12.6961 20.639 12.5569C20.4797 12.4227 20.42 12.1441 20.639 11.8905L21.7046 10.6572L21.3362 10.3041L20.7088 10.3887C20.42 10.4285 20.2308 10.2445 20.2008 10.0157C20.171 9.79686 20.3004 9.56813 20.5942 9.52833L23.1884 9.19013C23.4772 9.15033 23.6664 9.34433 23.6913 9.55813C23.7212 9.78693 23.5868 10.0107 23.298 10.0455L22.3918 10.1649L23.8108 11.5126C24.0448 11.7363 24.0349 11.9949 23.9054 12.1541C23.766 12.3182 23.4971 12.3679 23.2432 12.1292L22.3021 11.2341L21.2764 12.4326Z" fill="#010101"/>
<path d="M19.2448 16.7442C19.2249 16.5304 19.3693 16.2818 19.688 16.2668L20.0564 16.2519L20.6241 14.8644L20.405 14.6307C20.156 14.3671 20.2308 14.0737 20.405 13.9345C20.5544 13.8151 20.7884 13.8151 20.9876 14.034L22.9146 16.1077C23.0838 16.2967 23.0988 16.5006 23.034 16.6597C22.9644 16.8238 22.815 16.9631 22.561 16.973L19.7079 17.1023C19.4142 17.1172 19.2598 16.9382 19.2448 16.7492V16.7442ZM20.8233 16.2121L21.854 16.1624L21.1469 15.4164L20.8233 16.2121Z" fill="#010101"/>
<path d="M18.6523 21.6527L16.8399 19.7331C16.6457 19.5291 16.7054 19.2507 16.8498 19.1164C17.0141 18.9622 17.1635 18.9324 17.3975 18.9573L19.7726 19.2059L18.6523 18.0223C18.4581 17.8184 18.4979 17.5598 18.6523 17.4106C18.8067 17.2664 19.0655 17.2316 19.2647 17.4405L21.0772 19.3551C21.2763 19.5639 21.2265 19.8225 21.0772 19.9668C20.9328 20.106 20.7784 20.1607 20.5245 20.1309L18.1444 19.8823L19.2647 21.0708C19.4639 21.2797 19.4141 21.5383 19.2647 21.6825C19.1054 21.8317 18.8465 21.8565 18.6523 21.6527Z" fill="#010101"/>
<path d="M16.2025 20.1259L16.9992 22.5776C17.0888 22.8561 16.9345 23.0749 16.7253 23.1396L15.6448 23.4877C14.7884 23.7662 13.7477 23.4678 13.3992 22.3837C13.0457 21.2995 13.7129 20.4491 14.5743 20.1757L15.6548 19.8275C15.8639 19.7629 16.1179 19.8474 16.2075 20.1259H16.2025ZM14.8431 20.8719C14.3901 21.0211 14.0265 21.4587 14.2407 22.1151C14.4548 22.7666 15.0025 22.9158 15.4556 22.7666L16.083 22.5627L15.4705 20.668L14.8431 20.8719Z" fill="#010101"/>
<path d="M11.278 21.1155L10.6855 23.6419C10.6207 23.9303 10.3767 24.0347 10.1627 23.985L8.88802 23.6866C8.18588 23.5225 7.67302 22.9655 7.84235 22.2295C8.01162 21.5035 8.67388 21.2051 9.38588 21.3741L10.2772 21.583L10.4315 20.9216C10.4963 20.6431 10.7353 20.5287 10.9543 20.5785C11.1685 20.6282 11.3377 20.8321 11.273 21.1155H11.278ZM9.26642 22.1151C9.00248 22.0555 8.76848 22.1699 8.70875 22.4334C8.64895 22.7019 8.80828 22.9059 9.07222 22.9655L9.91868 23.1645L10.1179 22.3141L9.27142 22.1201L9.26642 22.1151Z" fill="#010101"/>
<path d="M5.87056 18.7235C6.005 18.5246 6.23405 18.5196 6.43322 18.6489L7.72282 19.5043C7.90709 19.6237 7.99669 19.8773 7.83236 20.1209L6.38342 22.2892C6.21911 22.5329 5.95521 22.5478 5.77098 22.4285C5.58176 22.3041 5.5021 22.0505 5.66144 21.8118L6.94609 19.8872L6.01496 19.2705C5.81579 19.1363 5.73612 18.9175 5.86558 18.7235H5.87056Z" fill="#010101"/>
<path d="M4.11784 15.8391C4.30706 15.9336 4.44648 16.1922 4.28714 16.4707L4.10788 16.789L4.97926 18.0074L5.29793 17.9477C5.65146 17.8781 5.86556 18.0969 5.88548 18.3207C5.9054 18.5147 5.78092 18.7086 5.49212 18.7633L2.70872 19.2855C2.45976 19.3302 2.2805 19.2307 2.17594 19.0915C2.07137 18.9473 2.03652 18.7434 2.161 18.5246L3.57013 16.043C3.71452 15.7844 3.94855 15.7546 4.11784 15.8391ZM3.72946 17.4554L3.22158 18.3505L4.23237 18.1566L3.72946 17.4554Z" fill="#010101"/>
<path d="M0.612454 13.6908L2.38507 14.3472L3.21163 14.1135C3.49047 14.034 3.70457 14.1881 3.76432 14.4069C3.82407 14.6158 3.72947 14.8644 3.44565 14.944L2.60913 15.1827L1.46391 16.6697C1.25478 16.9382 0.995858 16.9233 0.836518 16.784C0.682165 16.6448 0.647308 16.3713 0.851458 16.1127L1.74773 14.954L0.358512 14.4517C0.0398395 14.3323 -0.0497871 14.0688 0.0249017 13.8698C0.0946111 13.6908 0.30374 13.5764 0.612454 13.6908Z" fill="#010101"/>
<path d="M3.99336 8.64807C4.04813 8.85693 3.93859 9.12553 3.62987 9.19013L3.27137 9.26473L2.92282 10.7219L3.17677 10.9208C3.46058 11.1445 3.43569 11.4479 3.27635 11.612C3.14689 11.7563 2.91784 11.7861 2.68382 11.6021L0.458092 9.83667C0.258922 9.67753 0.214108 9.4786 0.258922 9.30953C0.298756 9.13547 0.433196 8.97633 0.67718 8.9266L3.4805 8.3646C3.76929 8.30493 3.94855 8.45913 3.99336 8.64313V8.64807ZM2.51453 9.41393L1.50373 9.61786L2.31535 10.2494L2.51453 9.41393Z" fill="#010101"/>
<path d="M3.81411 3.71977L5.90042 5.33602C6.12449 5.51007 6.10955 5.79354 5.98507 5.94771C5.84565 6.12673 5.70623 6.17647 5.46723 6.19139L3.08217 6.30577L4.36681 7.30039C4.59088 7.47446 4.59088 7.73306 4.45644 7.90706C4.32698 8.07119 4.07303 8.14579 3.84897 7.96679L1.76266 6.35053C1.53361 6.17149 1.54357 5.90792 1.67303 5.74381C1.79254 5.58467 1.93693 5.51007 2.19088 5.49516L4.58092 5.37581L3.29129 4.37622C3.06225 4.19719 3.07221 3.93859 3.20167 3.76951C3.33611 3.59545 3.58507 3.5308 3.80913 3.70485L3.81411 3.71977Z" fill="#010101"/>
<path d="M6.478 4.84866L5.31784 2.55111C5.1834 2.28754 5.3029 2.04883 5.50207 1.94937L6.51784 1.44212C7.32446 1.0393 8.395 1.17357 8.90786 2.18808C9.42073 3.20258 8.89293 4.14249 8.08633 4.55028L7.07053 5.0625C6.87633 5.16196 6.61244 5.11721 6.478 4.85364V4.84866ZM7.70786 3.90378C8.13606 3.68994 8.42486 3.1976 8.1112 2.58592C7.80246 1.97423 7.23486 1.91456 6.8116 2.1284L6.22406 2.42181L7.12033 4.19719L7.70786 3.90378Z" fill="#010101"/>
<path d="M4.80499 12.5519C4.56598 12.5519 4.35187 12.3779 4.31204 12.1342C4.26723 11.8607 4.45146 11.6071 4.72532 11.5623L6.72701 11.244C7.00081 11.1993 7.25481 11.3883 7.29461 11.6568C7.33941 11.9303 7.15521 12.1839 6.88134 12.2287L4.87967 12.547C4.85478 12.547 4.82491 12.5519 4.80001 12.5519H4.80499Z" fill="#010101"/>
<path d="M19.0506 12.5519C19.0258 12.5519 18.9959 12.5519 18.971 12.547L16.9693 12.2287C16.6955 12.1839 16.5112 11.9303 16.556 11.6568C16.6008 11.3883 16.8548 11.1993 17.1237 11.244L19.1254 11.5623C19.3992 11.6071 19.5834 11.8607 19.5386 12.1342C19.4988 12.3779 19.2896 12.5519 19.0457 12.5519H19.0506Z" fill="#010101"/>
</g>
</g>
<defs>
<clipPath id="clip0_10_14">
<rect width="24" height="24" fill="white"/>
</clipPath>
</defs>
</svg>
